<svg width="74" height="56" viewBox="0 0 74 56" fill="none" xmlns="http://www.w3.org/2000/svg">
<path fill-rule="evenodd" clip-rule="evenodd" d="M48.3893 37.0844H24.873V43.4156H48.3881L48.3893 37.0844ZM48.3893 25.3257H24.873V31.6568H48.3881L48.3893 25.3257Z" fill="black"/>
<path fill-rule="evenodd" clip-rule="evenodd" d="M66.8099 26.2123L48.3891 18.0704L54.6006 37.7916C55.7789 41.3058 58.7485 44.7528 63.7658 44.7528C68.9883 44.7528 73.2632 40.4901 73.2632 35.2677C73.2632 30.8438 70.5427 27.8876 66.8099 26.2123ZM26.0035 48.8421C27.8803 52.8411 31.9464 55.6263 36.656 55.6263C41.3693 55.6263 45.4085 52.8459 47.284 48.8421H26.0035ZM47.284 19.8995C45.4061 15.9005 41.3412 13.1153 36.6316 13.1153C31.9183 13.1153 27.8791 15.8957 26.0035 19.8995H47.284ZM0 35.2677C0 40.4901 4.27491 44.7528 9.49613 44.7528C14.5122 44.7528 17.483 41.3058 18.6613 37.7916L24.8728 18.0704L6.45204 26.2123C2.71928 27.8876 0 30.8438 0 35.2677ZM43.4243 0C40.4327 0 38.0077 2.42623 38.0077 5.41659C38.0077 8.40817 40.4327 10.8344 43.4243 10.8344C46.4159 10.8344 48.8421 8.40817 48.8421 5.41659C48.8421 2.42623 46.4159 0 43.4243 0ZM29.8376 0C26.8461 0 24.4211 2.42623 24.4211 5.41659C24.4211 8.40817 26.8461 10.8344 29.8376 10.8344C32.8292 10.8344 35.2542 8.40817 35.2542 5.41659C35.2542 2.42623 32.8292 0 29.8376 0Z" fill="#8A3FFC"/>
</svg>
